<?xml version="1.0" standalone="no"?>
<!DOCTYPE svg PUBLIC "-//W3C//DTD SVG 20010904//EN"
 "http://www.w3.org/TR/2001/REC-SVG-20010904/DTD/svg10.dtd">
<svg version="1.0" xmlns="http://www.w3.org/2000/svg"
 width="840.000000pt" height="761.000000pt" viewBox="0 0 840.000000 761.000000"
 preserveAspectRatio="xMidYMid meet">

<g transform="translate(0.000000,761.000000) scale(0.100000,-0.100000)"
fill="#000000" stroke="none">
<path d="M305 7196 c-84 -38 -125 -131 -94 -213 15 -42 68 -92 109 -103 21 -6
314 -10 758 -10 786 0 753 2 829 -56 69 -53 76 -72 177 -524 91 -406 139 -620
366 -1635 55 -247 152 -679 215 -960 104 -465 175 -785 343 -1532 l59 -262
-61 -21 c-239 -85 -434 -299 -502 -550 -28 -100 -25 -301 4 -404 108 -379 473
-625 856 -578 432 53 748 448 697 869 -14 113 -33 178 -82 275 l-39 78 1101 0
c605 0 1099 -3 1097 -7 -99 -193 -120 -270 -120 -433 0 -207 69 -381 210 -531
246 -262 608 -330 927 -174 163 79 279 196 360 360 65 130 80 195 80 350 0
154 -15 219 -79 350 -120 243 -343 401 -618 436 -65 9 -111 9 -176 0 -63 -8
-560 -11 -1700 -11 l-1612 0 -5 23 c-29 121 -235 1049 -235 1057 0 6 601 11
1773 12 1661 3 1775 4 1823 21 76 25 170 92 213 151 22 29 88 165 153 316 64
146 325 744 581 1330 256 586 470 1083 476 1105 15 56 13 112 -7 170 -25 72
-68 121 -136 155 l-59 30 -2779 0 c-1528 0 -2778 2 -2778 4 0 15 -113 501
-126 538 -56 169 -249 333 -439 373 -99 21 -1514 22 -1560 1z m7525 -1256 c0
-6 -54 -133 -119 -283 -65 -149 -237 -542 -381 -872 -144 -330 -340 -780 -436
-1000 -116 -264 -183 -408 -200 -422 l-25 -23 -1789 0 c-1695 0 -1789 1 -1794
18 -3 9 -14 58 -25 107 -11 50 -85 383 -165 740 -80 358 -199 892 -266 1188
-66 296 -120 542 -120 547 0 7 950 10 2660 10 1813 0 2660 -3 2660 -10z
m-4475 -4369 c99 -9 168 -42 241 -115 223 -224 157 -596 -131 -733 -206 -97
-451 -26 -576 168 -92 144 -92 344 1 489 78 122 245 219 350 204 19 -3 71 -9
115 -13z m3612 -11 c301 -105 393 -501 171 -736 -90 -95 -201 -144 -327 -144
-280 0 -496 249 -453 522 30 196 200 367 366 369 34 0 70 4 81 9 26 12 96 3
162 -20z"/>
</g>
</svg>
